# xmcd
#
# Track frame offsets:
#	150
#	13005
#	27510
#	38857
#	58417
#	67702
#	83212
#	101262
#	114637
#	133415
#	146460
#
# Disc length: 2115 seconds
#
# Revision: 0
# Processed by: cddbd v1.4PL0 Copyright (c) Steve Scherf et al.
# Submitted via: dBpowerAMP V4.0
#
DISCID=9708410b
DTITLE=Country Action - With Friends
DYEAR=1900
DGENRE=Norwegian Countr
TTITLE0=I fell in love
TTITLE1=Meg og min gitar
TTITLE2=Palm of your hand
TTITLE3=This old house
TTITLE4=Love comes from the other side of town
TTITLE5=This one's gonna hurt you
TTITLE6=Don't close your eyes
TTITLE7=You don't have to go to Memphis
TTITLE8=Oh' darling
TTITLE9=The grand tour
TTITLE10=Indian River
EXTD=Dag Wolf and Leif Aase (Country Action)
EXTT0=
EXTT1=
EXTT2=
EXTT3=
EXTT4=
EXTT5=
EXTT6=
EXTT7=
EXTT8=
EXTT9=
EXTT10=
PLAYORDER=
